<svg width="322" height="355" viewBox="0 0 322 355" fill="none" xmlns="http://www.w3.org/2000/svg">
<path d="M265.649 215.599L265.649 266.797C271.315 263.81 276.476 263.391 276.475 277.223C276.476 289.276 276.476 344.741 276.476 344.741C279.68 342.892 295.674 284.369 302.095 242.911C307.76 206.331 294.717 198.815 265.649 215.599Z" fill="#E19100"/>
<path d="M157.544 215.599V266.797C151.876 263.81 146.716 263.392 146.716 277.223C146.716 289.276 146.717 344.743 146.717 344.743C143.514 342.893 127.52 284.369 121.098 242.914C115.433 206.333 128.475 198.816 157.544 215.599Z" fill="#FCBA06"/>
<path d="M180.721 269.503C189.246 264.58 200.421 262.12 211.597 262.12C222.772 262.12 233.947 264.581 242.473 269.504C250.998 274.424 255.262 280.877 255.262 287.33C255.262 293.78 251.001 300.232 242.473 305.154C233.948 310.079 222.773 312.539 211.597 312.539C200.423 312.54 189.247 310.079 180.721 305.154C172.195 300.233 167.932 293.78 167.932 287.33C167.932 280.877 172.194 274.427 180.721 269.503Z" fill="#FCBA06"/>
<path d="M242.473 269.504C233.947 264.582 222.772 262.12 211.597 262.12C200.421 262.12 189.246 264.58 180.721 269.503C176.866 271.729 173.891 274.268 171.778 276.977C173.949 279.745 177.457 281.644 182.734 282.272C217.827 286.442 227.569 301.723 227.106 310.879C232.704 309.652 237.965 307.758 242.473 305.154C251.001 300.232 255.262 293.78 255.262 287.33C255.262 280.877 250.998 274.424 242.473 269.504Z" fill="#ED9F00"/>
<path d="M289.686 173.479C283.287 102.651 236.218 38.2243 211.594 10.4919C186.97 38.2243 139.905 102.653 133.506 173.479C130.356 208.338 138.859 240.074 147.942 265.328C147.945 265.33 147.95 265.328 147.955 265.327C150.438 272.25 156.319 278.845 165.623 284.217C178.317 291.545 194.958 295.209 211.598 295.21C228.237 295.21 244.875 291.543 257.572 284.214C266.875 278.844 272.753 272.249 275.24 265.326C275.243 265.327 275.249 265.327 275.254 265.326C284.334 240.072 292.837 208.334 289.686 173.479Z" fill="#E9EDF7"/>
<path d="M202.328 275.582C202.328 253.975 190.429 235.396 161.925 217.372C157.525 231.933 160.873 245.565 165.397 262.121C171.622 264.564 175.467 271.381 178.026 284.972C178.265 286.232 178.597 288 178.994 290.107C186.07 292.48 193.73 294.02 201.593 294.724C202.057 288.295 202.328 281.813 202.328 275.582Z" fill="#F1F1F6"/>
<path d="M244.208 290.149C248.981 288.551 253.483 286.575 257.572 284.214C266.875 278.844 272.753 272.249 275.24 265.326C275.243 265.327 275.249 265.327 275.254 265.326C284.334 240.072 292.837 208.335 289.686 173.48C283.287 102.651 236.218 38.2245 211.594 10.4921C229.719 44.4844 277.605 169.669 244.208 290.149Z" fill="#DDE2F8"/>
<path d="M211.594 10.4919C202.061 21.2296 189.162 37.4878 176.562 57.4688V57.4777C175.214 59.7372 174.537 62.1031 174.538 64.4666C174.538 69.9429 178.155 75.4182 185.391 79.5947C192.628 83.7722 202.111 85.8606 211.594 85.8606C221.079 85.8624 230.563 83.7729 237.799 79.5945C245.033 75.4171 248.651 69.9426 248.651 64.4657C248.652 62.1018 247.976 59.7369 246.626 57.4766L246.628 57.4681C234.027 37.4855 221.129 21.2298 211.594 10.4919Z" fill="#FCBA06"/>
<path d="M248.651 64.4655C248.652 62.1015 247.976 59.7367 246.626 57.4764L246.628 57.4678C234.027 37.4855 221.129 21.2298 211.594 10.4919C218.087 22.668 228.327 47.6485 237.931 79.4794C245.314 75.1415 248.652 69.7271 248.651 64.4655Z" fill="#ED9F00"/>
<path d="M261.268 217.372C254.252 230.863 251.969 246.578 253.351 263.683C259.017 267.24 264.581 272.953 264.58 286.784C264.581 298.836 264.581 354.303 264.581 354.303C267.783 356.152 283.78 316.097 290.2 282.055C295.863 252.017 289.407 235.239 261.268 217.372Z" fill="#FCBA06"/>
<path d="M270.678 230.863C277.983 238.092 289.32 248.778 287.532 270.757C285.544 295.192 274.279 337.393 266.054 353.458C271.149 347.5 284.475 312.401 290.2 282.055C295.863 252.017 289.407 235.239 261.268 217.372C260.93 218.023 261.946 222.226 270.678 230.863Z" fill="url(#paint0_linear)"/>
<path d="M267.001 295.209C276.251 280.881 282.639 275.941 279.031 239.858C278.706 236.616 280.203 232.867 282.483 235.36C277.571 229.133 270.624 223.312 261.268 217.372C254.252 230.863 251.969 246.578 253.351 263.683C259.017 267.24 264.581 272.953 264.58 286.784C264.58 288.414 264.58 290.841 264.58 293.812L267.001 295.209Z" fill="#ED9F00"/>
<path d="M161.923 217.375C168.941 230.864 171.225 246.584 169.843 263.688C164.178 267.242 158.615 272.955 158.613 286.787C158.613 298.838 158.614 354.304 158.614 354.304C155.413 356.155 139.417 316.1 132.996 282.057C127.33 252.018 133.787 235.24 161.923 217.375Z" fill="#ED9F00"/>
<path d="M152.516 230.864C145.211 238.092 133.873 248.781 135.663 270.758C137.653 295.194 148.917 337.395 157.142 353.46C152.046 347.501 138.72 312.402 132.997 282.056C127.331 252.017 133.788 235.239 161.926 217.372C162.264 218.024 161.249 222.226 152.516 230.864Z" fill="url(#paint1_linear)"/>
<path d="M247.245 122.864C232.856 130.515 226.372 151.204 232.765 169.061C239.157 186.916 256.011 195.196 270.399 187.546C284.788 179.895 291.274 159.208 284.88 141.35C278.487 123.492 261.632 115.214 247.245 122.864Z" fill="#BBC0E6"/>
<path d="M238.707 165.901C233.771 152.115 238.778 136.145 249.884 130.24C252.19 129.014 254.578 128.347 256.958 128.136C265.318 128.37 273.271 134.475 276.886 144.574C281.822 158.36 276.815 174.33 265.708 180.235C263.403 181.461 261.017 182.13 258.635 182.34C250.275 182.105 242.321 176.003 238.707 165.901Z" fill="#807DFB"/>
<path d="M243.245 122.993C246.649 121.183 250.191 120.263 253.701 120.153L257.7 120.027C254.191 120.138 250.648 121.056 247.245 122.866C232.856 130.517 226.372 151.206 232.765 169.063C237.644 182.692 248.62 190.743 259.941 190.387L255.943 190.513C244.62 190.871 233.643 182.82 228.763 169.188C222.37 151.331 228.855 130.644 243.245 122.993Z" fill="#F6F6FB"/>
<path d="M276.886 144.574C273.271 134.475 265.319 128.37 256.958 128.136C266.046 127.334 275.029 133.587 278.939 144.509C283.874 158.294 278.868 174.266 267.76 180.171C264.791 181.748 261.688 182.424 258.635 182.34C261.017 182.129 263.403 181.46 265.708 180.234C276.816 174.33 281.822 158.36 276.886 144.574Z" fill="#CED3F8"/>
<path d="M263.831 181.1C262.707 181.548 261.568 181.879 260.429 182.094C260.424 182.094 260.42 182.094 260.415 182.095C259.822 182.207 259.228 182.287 258.635 182.341C258.289 182.329 257.944 182.295 257.599 182.267C259.642 181.973 261.678 181.352 263.657 180.301C274.765 174.394 279.769 158.423 274.835 144.638C271.37 134.959 263.919 128.964 255.943 128.276C256.254 128.233 256.565 128.176 256.875 128.147C257.222 128.157 257.567 128.176 257.91 128.204C258.068 128.218 258.225 128.223 258.381 128.239C258.819 128.286 259.255 128.357 259.689 128.436C259.793 128.454 259.9 128.466 260.006 128.487C260.546 128.595 261.083 128.725 261.615 128.882C261.674 128.899 261.726 128.922 261.783 128.939C262.248 129.083 262.713 129.239 263.169 129.418C263.353 129.49 263.535 129.576 263.718 129.655C264.046 129.795 264.371 129.934 264.693 130.091C264.9 130.193 265.104 130.309 265.311 130.419C265.6 130.573 265.889 130.729 266.173 130.898C266.388 131.025 266.597 131.166 266.809 131.302C267.075 131.475 267.343 131.65 267.605 131.836C267.817 131.987 268.027 132.146 268.237 132.307C268.488 132.499 268.74 132.695 268.984 132.901C269.189 133.074 269.392 133.254 269.593 133.433C269.835 133.651 270.072 133.87 270.304 134.097C270.499 134.288 270.693 134.482 270.884 134.682C271.112 134.92 271.338 135.166 271.559 135.417C271.741 135.625 271.923 135.833 272.1 136.047C272.32 136.312 272.531 136.587 272.74 136.864C272.907 137.084 273.076 137.303 273.239 137.53C273.448 137.825 273.646 138.129 273.847 138.435C273.996 138.665 274.15 138.891 274.294 139.129C274.495 139.459 274.685 139.803 274.876 140.148C275.003 140.377 275.136 140.601 275.256 140.837C275.459 141.228 275.648 141.633 275.837 142.041C275.93 142.247 276.032 142.445 276.126 142.655C276.395 143.278 276.652 143.917 276.886 144.575C277.812 147.16 278.388 149.82 278.64 152.479C278.724 153.364 278.772 154.25 278.784 155.132C278.812 157.06 278.659 158.965 278.362 160.83C278.114 162.378 277.773 163.897 277.314 165.36C276.946 166.537 276.488 167.665 275.989 168.767C274.434 172.198 272.285 175.238 269.581 177.575C268.388 178.602 267.098 179.499 265.708 180.235C265.184 180.516 264.655 180.758 264.125 180.979C264.026 181.019 263.928 181.059 263.831 181.1Z" fill="#DFE4F4"/>
<path d="M249.144 141.405C259.777 141.702 269.893 149.465 274.492 162.311C275.212 164.322 275.746 166.372 276.139 168.434C273.91 173.526 270.351 177.767 265.708 180.235C263.403 181.461 261.017 182.13 258.635 182.34C250.275 182.105 242.321 176.003 238.706 165.901C236.254 159.049 236.261 151.661 238.247 145.234C238.87 144.832 239.49 144.426 240.146 144.078C243.08 142.52 246.117 141.671 249.144 141.405Z" fill="#6B67E9"/>
<path d="M152.556 173.478C153.465 160.176 155.461 147.102 158.223 134.453C158.773 131.937 157.189 129.452 154.68 128.877C152.208 128.31 149.731 129.802 149.076 132.252C145.51 145.583 142.937 159.404 141.801 173.478C141.029 183.033 141.041 192.352 141.63 201.368C141.785 203.741 143.485 205.727 145.802 206.259C149.291 207.059 152.567 204.3 152.379 200.726C151.915 191.91 151.92 182.806 152.556 173.478Z" fill="#BBC0E6"/>
<path d="M70.984 211.798C70.984 229.027 70.9244 306.26 70.9244 341.536C68.7844 341.536 64.6645 341.536 64.6645 341.536C61.1471 332.793 37.7093 228.437 35.3325 211.798C40.0858 211.798 70.984 211.798 70.984 211.798Z" fill="#362E94"/>
<path d="M64.6646 343.829C64.6646 342.566 64.6646 341.537 64.6646 341.537H70.9245C71.0045 343.672 71.4014 344.818 71.6415 345.703C70.0141 346.328 67.6335 344.713 64.6646 343.829Z" fill="#F0CCC0"/>
<path d="M64.6649 343.829C67.6338 344.713 70.0144 346.328 71.6418 345.703C72.5039 346.328 85.1998 350.895 86.4915 351.776C87.8123 352.684 87.6193 354.087 86.2195 354.087C84.1732 354.087 67.3165 353.346 67.3165 353.346C66.9744 353.716 66.6982 354.087 66.6982 354.087H62.8453C61.6959 352.097 62.0065 346.119 64.6649 343.829Z" fill="#20196F"/>
<path d="M18.6338 343.829C18.6338 342.566 18.6338 341.537 18.6338 341.537H24.8933C24.974 343.672 25.3714 344.818 25.6114 345.703C23.9835 346.328 21.6027 344.713 18.6338 343.829Z" fill="#F0CCC0"/>
<path d="M18.6339 343.829C21.6029 344.713 23.9839 346.328 25.6115 345.703C26.4734 346.328 39.1682 350.895 40.4621 351.776C41.783 352.684 41.5883 354.087 40.1895 354.087C38.1447 354.087 21.2851 353.346 21.2851 353.346C20.9446 353.716 20.6679 354.087 20.6679 354.087H16.8136C15.6652 352.097 15.9767 346.119 18.6339 343.829Z" fill="#20196F"/>
<path d="M24.8126 211.798C24.458 218.336 18.6338 306.26 18.6338 341.536C20.7734 341.536 24.8924 341.536 24.8924 341.536C28.4095 332.793 58.0916 228.437 60.4681 211.798C55.7151 211.798 24.8126 211.798 24.8126 211.798Z" fill="#423EAF"/>
<path d="M58.2037 140.116C68.3952 146.438 81.6586 166.997 84.1686 166.395C89.9539 165.007 103.024 154.401 109.13 148.296C111.325 150.002 113.972 151.2 113.972 151.2C111.744 155.576 95.9047 174.777 86.7978 179.666C82.2486 182.108 72.3355 180.558 59.7958 164.965C53.73 157.422 58.2037 140.116 58.2037 140.116Z" fill="#C4CAE9"/>
<path d="M115.252 139.721C116.755 138.218 119.635 137.989 126.178 139.213C126.903 139.253 124.385 142.403 124.385 142.403C123.333 144.507 122.418 145.315 119.887 147.842C116.932 150.793 116.128 149.632 113.972 151.2C111.219 150.323 109.13 148.295 109.13 148.295C112.264 145.767 112.482 142.491 115.252 139.721Z" fill="#F8D8D0"/>
<path d="M115.191 151.69C115.191 151.69 108.814 147.822 108.416 147.498C107.232 148.567 104.499 150.969 104.36 150.986C105.485 151.9 112.224 156.747 112.47 156.717C112.935 156.09 115.191 151.69 115.191 151.69Z" fill="#D1D7F3"/>
<path d="M24.8127 211.798C28.7299 211.798 70.9843 211.798 70.9843 211.798C69.7808 195.108 68.5568 154.494 61.7203 144.54C53.2119 132.153 46.2083 133.541 37.3304 142.419C25.3555 154.395 22.9779 197.884 24.8127 211.798Z" fill="#DDE2F8"/>
<path d="M62.8206 211.798H60.1236V211.103C60.1236 185.642 60.1236 177.957 59.1277 168.928C57.3288 152.608 55.3656 143.829 52.563 139.574L54.8154 138.091C57.0775 141.525 59.4905 147.602 61.8081 168.632C62.8204 177.809 62.8204 185.528 62.8204 211.103V211.798H62.8206Z" fill="#C4CAE9"/>
<path d="M44.1194 125.126C44.3953 127.357 44.4992 135.84 42.6079 138.267C43.9712 139.302 51.1626 140.759 56.5413 138.604C55.3868 137.179 53.5593 136.22 55.0326 133.692C56.6377 130.937 59.3559 134.64 61.5078 130.126C64.0194 124.864 64.7771 114.485 62.2884 111.594C59.5031 108.356 53.9439 104.399 46.4309 108.81C40.2999 112.409 43.5631 120.595 44.1194 125.126Z" fill="#F8D8D0"/>
<path d="M49.7742 120.033C51.4805 120.058 50.6092 115.586 51.8619 114.521C53.3421 113.262 58.2947 112.533 63.0954 113.064C67.8949 113.591 70.8902 107.33 67.8235 104.728C64.7527 102.126 61.9586 105.71 59.6715 104.948C57.0062 104.057 57.476 100.803 53.5147 101.144C49.8553 101.458 51.5151 104.864 49.1896 105.468C46.7931 106.09 43.2706 102.91 40.341 106.667C38.1674 109.454 41.4355 111.084 41.0863 114.185C40.8694 116.122 36.0458 121.838 41.2465 124.263C46.4513 126.685 45.248 121.37 44.9729 119.173C44.7009 116.976 45.6945 115.529 46.7938 115.485C47.889 115.438 47.3397 120 49.7742 120.033Z" fill="#362E94"/>
<path d="M43.2954 136.222C44.5689 136.86 52.5257 138.256 55.2631 136.66C55.8331 137.338 56.2619 137.949 56.5411 138.604C54.6338 139.746 47.4812 140.96 42.4805 138.388C42.7976 137.523 43.2954 136.222 43.2954 136.222Z" fill="#C4CAE9"/>
<path d="M37.5589 142.07C29.055 148.968 25.1837 159.925 19.0233 174.948C15.3517 183.903 18.8412 213.79 20.4266 221.395C22.7029 220.479 28.0135 219.726 28.0135 219.726C26.2535 215.348 27.7784 184.646 30.7613 180.271C32.9767 177.023 36.2061 172.351 41.1762 166.688C47.6421 159.319 48.9904 154.047 47.8477 149.648C46.7044 145.25 41.1061 139.193 37.5589 142.07Z" fill="#E7EEFF"/>
<path d="M19.9575 222.723C19.9575 222.723 28.1937 220.613 28.7538 220.555C28.734 218.908 28.474 216.454 28.4983 215.006C26.9163 215.174 18.4841 216.491 18.3193 216.706C18.4456 217.552 19.9575 222.723 19.9575 222.723Z" fill="#D1D7F3"/>
<path d="M6.82806 272.854C7.08989 274.22 8.42221 275.121 9.7878 274.86L58.3011 265.536C59.666 265.275 60.5684 263.943 60.3067 262.576L54.5223 232.477C54.2589 231.111 52.9282 230.208 51.5626 230.472L3.04956 239.795C1.6842 240.057 0.7816 241.387 1.04388 242.754L6.82806 272.854Z" fill="#171659"/>
<path d="M51.5626 230.472L30.6752 252.665L3.0498 239.795L51.5626 230.472Z" fill="#362E94"/>
<path d="M32.1373 249.114L28.0015 249.908L28.7951 254.045L32.9329 253.25L32.1373 249.114Z" fill="#DDE2F8"/>
<path d="M32.757 252.334L29.4976 252.959L28.0015 249.908L28.7951 254.045L32.9329 253.25L32.757 252.334Z" fill="#BBC0E6"/>
<path d="M18.796 229.636L33.1726 226.873C33.4198 226.826 33.6747 226.877 33.8844 227.018C34.0914 227.16 34.2357 227.377 34.2827 227.625L35.4251 233.571L33.5639 233.929L32.5993 228.913L20.0834 231.318L21.0476 236.336L19.1869 236.693L18.0435 230.745C17.9449 230.232 18.2811 229.735 18.796 229.636Z" fill="#BBC0E6"/>
<path d="M21.0278 222.45C21.8763 225.681 20.917 229.1 22.6892 230.872C23.697 231.879 32.1366 232.008 30.582 229.3C29.3674 228.955 30.1453 227.455 30.1453 227.455L31.2146 227.25C32.1503 225.973 29.6679 224.066 27.7288 223.665C27.4137 222.896 26.9412 220.972 26.9412 220.972L21.0278 222.45Z" fill="#F7D3C9"/>
<path d="M317.264 104.877L314.206 106.832C313.071 107.558 311.721 107.986 310.2 108.039C304.292 108.244 297.999 102.725 296.176 95.736C294.823 90.5451 296.305 85.9832 299.575 83.8912L302.636 81.9359C299.364 84.0274 297.88 88.5912 299.235 93.7797C301.061 100.769 307.353 106.29 313.258 106.083C314.779 106.029 316.131 105.602 317.264 104.877Z" fill="#E19100"/>
<path d="M306.64 80.7295C312.548 80.5232 318.839 86.0439 320.665 93.0323C322.489 100.021 319.165 105.877 313.258 106.082C307.353 106.29 301.061 100.769 299.235 93.7796C297.411 86.7908 300.732 80.9351 306.64 80.7295Z" fill="#FCBA06"/>
<path d="M315.523 84.5031C312.916 82.0875 309.73 80.6204 306.64 80.7296C300.732 80.9355 297.411 86.7909 299.235 93.7797C299.875 96.2329 301.072 98.4943 302.604 100.401L315.523 84.5031Z" fill="#FFD05F"/>
<path d="M308.707 83.386L309.15 85.0802C310.944 85.5072 312.647 87.2374 313.203 89.3592L311.387 89.4231C311.046 88.1164 309.872 87.0875 308.767 87.1236C307.667 87.163 307.048 88.2559 307.388 89.5629C307.553 90.1904 307.916 90.7794 308.411 91.2123C308.905 91.6458 309.466 91.8733 310.001 91.8544C312.106 91.7823 314.348 93.7475 314.999 96.2386C315.551 98.3546 314.774 100.176 313.232 100.715L313.641 102.28L311.824 102.344L311.414 100.778C309.629 100.358 307.923 98.621 307.368 96.5047L309.185 96.4418C309.524 97.7422 310.697 98.7727 311.798 98.7342C312.904 98.6947 313.523 97.6031 313.182 96.3016C312.841 94.9955 311.667 93.9653 310.564 94.0033C309.545 94.0388 308.467 93.6068 307.521 92.7768C306.577 91.9475 305.888 90.8298 305.574 89.6262C305.019 87.5039 305.798 85.6875 307.335 85.1438L306.891 83.4483L308.707 83.386Z" fill="#FFE357"/>
<path d="M63.1857 7.14215L67.9389 13.8948C71.9359 19.5729 71.1232 28.3309 64.9695 36.7015C56.3083 48.4834 40.3005 55.0938 29.2812 51.4501C26.0895 50.3909 23.6582 48.5902 22.0256 46.2732L17.2739 39.5217C18.9036 41.8362 21.3354 43.64 24.5271 44.6973C35.5493 48.3398 51.5587 41.729 60.2204 29.9482C66.37 21.579 67.182 12.8236 63.1857 7.14215Z" fill="#E19100"/>
<path d="M55.9383 1.96842C66.9582 5.61544 68.8792 18.1657 60.2209 29.9487C51.5592 41.7295 35.5496 48.3403 24.5276 44.6977C13.5099 41.0543 11.5811 28.5096 20.2405 16.7293C28.9008 4.94951 44.9161 -1.67478 55.9383 1.96842Z" fill="#FCBA06"/>
<path d="M62.7983 6.66258C61.1794 4.58521 58.9018 2.94813 55.9391 1.96844C44.9169 -1.67454 28.9017 4.94975 20.2411 16.7294C16.9377 21.2228 15.1878 25.8248 14.8833 30.0054L62.7983 6.66258Z" fill="#FFD05F"/>
<path d="M52.4283 7.27091L50.3582 10.1495C52.9104 11.9837 53.0759 15.7629 50.4885 19.3555L47.0712 18.2475C48.6629 16.038 48.2687 13.6864 46.1888 13.0095C44.1085 12.3334 41.1225 13.5866 39.5349 15.7964C38.7593 16.8725 38.4235 18.0111 38.5887 18.9988C38.7543 19.9893 39.4011 20.7139 40.4094 21.0396C44.3726 22.3294 45.1206 26.8141 42.0842 31.0349C39.4913 34.6372 34.9875 36.8899 31.2508 36.6925L29.3411 39.3507L25.922 38.2422L27.8344 35.58C25.2875 33.7348 25.1297 29.9711 27.7215 26.3689L31.1292 27.4744C29.5303 29.6936 29.9227 32.0451 32.0024 32.7216C34.0838 33.3968 37.0703 32.1416 38.6671 29.9235C40.2547 27.7149 39.8619 25.3624 37.782 24.6884C35.869 24.0685 34.6441 22.6811 34.3272 20.7874C34.0067 18.9083 34.6481 16.7435 36.127 14.6919C38.7118 11.0982 43.2147 8.83068 46.9404 9.03812L49.0094 6.16064L52.4283 7.27091Z" fill="#FFE357"/>
<path d="M107.148 167.442C107.148 150.629 120.775 137.002 137.588 137.002C154.401 137.002 168.029 150.629 168.029 167.442C168.029 184.254 154.401 197.879 137.588 197.879C120.775 197.879 107.148 184.254 107.148 167.442Z" fill="#FBBA05"/>
<path d="M112.177 167.442C112.177 181.453 123.575 192.851 137.588 192.851C151.599 192.851 162.999 181.453 162.999 167.442C162.999 153.43 151.599 142.03 137.588 142.03C123.575 142.03 112.177 153.43 112.177 167.442Z" fill="#ED9F00"/>
<path d="M114.856 170.122C114.856 156.11 126.254 144.709 140.268 144.709C146.592 144.709 152.38 147.038 156.834 150.876C152.169 145.466 145.273 142.03 137.588 142.03C123.575 142.03 112.177 153.431 112.177 167.442C112.177 175.128 115.611 182.022 121.022 186.685C117.184 182.233 114.856 176.446 114.856 170.122Z" fill="#E19100"/>
<path d="M137.588 165.473C136.355 165.473 135.194 164.993 134.324 164.121C133.452 163.25 132.972 162.09 132.972 160.856C132.972 158.309 135.043 156.237 137.588 156.237C140.134 156.237 142.206 158.309 142.206 160.856H146.396C146.396 156.722 143.53 153.254 139.684 152.312V149.007H135.493V152.312C131.648 153.254 128.783 156.722 128.783 160.856C128.783 163.209 129.698 165.42 131.362 167.084C133.024 168.746 135.235 169.661 137.588 169.661C140.134 169.661 142.206 171.733 142.206 174.278C142.206 176.825 140.134 178.896 137.588 178.896C135.043 178.896 132.972 176.825 132.972 174.278H128.783C128.783 178.412 131.648 181.88 135.493 182.822V185.871H139.684V182.823C143.53 181.88 146.396 178.412 146.396 174.278C146.396 169.423 142.446 165.473 137.588 165.473Z" fill="#FFD03E"/>
<path d="M113.935 141.737C115.941 140.423 126.971 140.656 126.834 141.53C126.695 142.403 123.249 143.162 118.787 143.949C116.057 150.213 110.871 147.843 110.871 147.843L113.935 141.737Z" fill="#F8D8D0"/>
<defs>
<linearGradient id="paint0_linear" x1="276.645" y1="353.458" x2="276.645" y2="217.372" gradientUnits="userSpaceOnUse">
<stop stop-color="#ED9F00"/>
<stop offset="1" stop-color="#FCBA06"/>
</linearGradient>
<linearGradient id="paint1_linear" x1="146.549" y1="353.46" x2="146.549" y2="217.372" gradientUnits="userSpaceOnUse">
<stop stop-color="#ED9F00"/>
<stop offset="1" stop-color="#FFD03E"/>
</linearGradient>
</defs>
</svg>
